<?xml version="1.0" encoding="UTF-8" standalone="no"?>
<!-- Created with Inkscape (http://www.inkscape.org/) -->

<svg
   xmlns:dc="http://purl.org/dc/elements/1.1/"
   xmlns:cc="http://creativecommons.org/ns#"
   xmlns:rdf="http://www.w3.org/1999/02/22-rdf-syntax-ns#"
   xmlns:svg="http://www.w3.org/2000/svg"
   xmlns="http://www.w3.org/2000/svg"
   xmlns:sodipodi="http://sodipodi.sourceforge.net/DTD/sodipodi-0.dtd"
   xmlns:inkscape="http://www.inkscape.org/namespaces/inkscape"
   width="800"
   height="600"
   id="svg3033"
   version="1.1"
   inkscape:version="0.48.4 r9939"
   sodipodi:docname="startup.svg"
   inkscape:export-filename="/home/ivan/grow.png"
   inkscape:export-xdpi="90.019997"
   inkscape:export-ydpi="90.019997">
  <sodipodi:namedview
     id="base"
     pagecolor="#ffffff"
     bordercolor="#666666"
     borderopacity="1.0"
     inkscape:pageopacity="0.0"
     inkscape:pageshadow="2"
     inkscape:zoom="0.5"
     inkscape:cx="119"
     inkscape:cy="302.13389"
     inkscape:document-units="px"
     inkscape:current-layer="layer1"
     showgrid="false"
     inkscape:window-width="938"
     inkscape:window-height="641"
     inkscape:window-x="701"
     inkscape:window-y="25"
     inkscape:window-maximized="0"
     inkscape:snap-page="true"
     inkscape:snap-global="true"
     inkscape:snap-nodes="false" />
  <defs
     id="defs3035">
    <filter
       id="filter3823"
       inkscape:label="Desaturate"
       x="0"
       y="0"
       height="1"
       width="1"
       inkscape:menu="Color"
       inkscape:menu-tooltip="Render in shades of gray by reducing saturation to zero"
       color-interpolation-filters="sRGB">
      <feTurbulence
         id="feTurbulence3827"
         numOctaves="3"
         seed="68"
         baseFrequency="0.20243902439024392"
         result="fbSourceGraphic"
         type="turbulence" />
      <feColorMatrix
         result="fbSourceGraphicAlpha"
         in="fbSourceGraphic"
         values="0 0 0 -1 0 0 0 0 -1 0 0 0 0 -1 0 0 0 0 1 0"
         id="feColorMatrix3829" />
    </filter>
  </defs>
  <metadata
     id="metadata3038">
    <rdf:RDF>
      <cc:Work
         rdf:about="">
        <dc:format>image/svg+xml</dc:format>
        <dc:type
           rdf:resource="http://purl.org/dc/dcmitype/StillImage" />
        <dc:title />
      </cc:Work>
    </rdf:RDF>
  </metadata>
  <g
     style="display:inline"
     inkscape:groupmode="layer"
     inkscape:label="Background"
     id="layer1"
     transform="translate(0,-480)">
    <path
       inkscape:connector-curvature="0"
       id="path5440"
       d="m 2.0874942e-4,480.0003 0,599.9999 799.99979125058,0 0,-599.9999 -799.99979125058,0 z"
       style="fill:#1b2021;fill-opacity:1;stroke:none"
       inkscape:transform-center-x="-1.0311971"
       inkscape:transform-center-y="1.414212" />
    <path
       inkscape:transform-center-y="1.414212"
       inkscape:transform-center-x="-1.0311971"
       style="opacity:0;fill:#1b2021;fill-opacity:1;stroke:none;filter:url(#filter3817)"
       d="m 2.0874942e-4,480.0003 0,599.9999 799.99979125058,0 0,-599.9999 -799.99979125058,0 z"
       id="path3807"
       inkscape:connector-curvature="0" />
    <g
       transform="matrix(0.54046684,0,0,0.54046684,-115.66065,166.28195)"
       id="g3884">
      <g
         id="g3886">
        <path
           style="fill:#ffffff"
           inkscape:connector-curvature="0"
           d="m 430.398,729.448 c 0,5.851 -4.769,11.103 -11.672,11.103 -0.212,0 -21.757,0 -21.757,0 v -8.149 h 21.801 c 1.336,0 2.959,-1.062 2.959,-2.953 0,-1.878 -1.172,-3.023 -3.494,-3.39 -0.125,-0.02 -13.328,-1.932 -13.446,-1.954 -7.034,-1.083 -10.106,-6.378 -10.106,-11.489 0,-5.85 4.77,-11.102 11.678,-11.102 0.21,0 21.76,0 21.76,0 v 8.141 h -21.812 c -1.334,0 -2.953,1.068 -2.953,2.961 0,1.877 1.172,3.018 3.488,3.383 0.127,0.021 13.33,1.934 13.449,1.953 7.034,1.083 10.105,6.384 10.105,11.496 z m -46.631,-27.95 v 23.219 c 0,4.85 -3.928,8.781 -8.774,8.781 -4.854,0 -8.784,-3.932 -8.784,-8.781 v -23.219 h -8.453 v 22.732 c 0,9.521 7.716,17.241 17.237,17.241 9.516,0 17.231,-7.72 17.231,-17.241 v -22.732 h -8.457 z m 92.232,36.129 c 0,-1.598 -1.303,-2.92 -2.963,-2.92 -1.666,0 -2.979,1.328 -2.979,2.932 0,1.604 1.307,2.919 2.963,2.919 1.663,0 2.979,-1.336 2.979,-2.931 z m -0.619,0 c 0,1.285 -1.02,2.334 -2.359,2.334 -1.344,0 -2.346,-1.035 -2.346,-2.322 0,-1.293 1.012,-2.34 2.361,-2.34 1.338,0 2.344,1.04 2.344,2.328 z m -1.084,-0.551 c 0,-0.574 -0.426,-0.92 -1.107,-0.92 h -1.25 v 2.792 h 0.619 v -0.899 h 0.49 l 0.607,0.899 h 0.725 l -0.688,-1 c 0.358,-0.125 0.604,-0.414 0.604,-0.872 z m -0.629,0.044 c 0,0.231 -0.168,0.406 -0.487,0.406 h -0.622 v -0.828 h 0.613 c 0.303,0 0.496,0.141 0.496,0.422 z m -12.412,-27.466 c 3.232,-0.09 6.635,-2.572 6.635,-7.425 0,-0.203 0,-0.45 0,-0.716 h -23.596 c -6.908,0 -11.672,5.252 -11.672,11.102 l 0,0 c 0,0 0,16.748 0,16.833 0,5.851 4.77,11.103 11.672,11.103 0.214,0 23.596,0 23.596,0 0,-0.268 0,-0.514 0,-0.725 0,-4.852 -3.402,-7.326 -6.635,-7.418 v -0.007 h -17.006 c -1.335,0 -2.963,-1.062 -2.963,-2.953 0,-1.878 1.237,-3.39 3.496,-3.39 2.25,0 7.234,0 7.369,0 6.484,-0.041 10.225,-4.014 11.4,-8.557 h -17.729 c -3.19,0 -4.537,2.531 -4.537,2.531 v -7.418 c 0,-1.893 1.619,-2.961 2.963,-2.961 h 17.007 z m -115.734,8.297 c -0.125,-0.02 -13.322,-1.933 -13.456,-1.953 -2.312,-0.365 -3.488,-1.506 -3.488,-3.383 0,-1.893 1.625,-2.961 2.957,-2.961 h 21.815 v -8.141 c 0,0 -21.554,0 -21.763,0 -6.906,0 -11.675,5.252 -11.675,11.102 0,5.111 3.071,10.406 10.1,11.489 0.125,0.022 13.331,1.935 13.456,1.954 2.322,0.366 3.488,1.512 3.488,3.39 0,1.891 -1.622,2.953 -2.966,2.953 h -15.935 v 0.007 c -3.225,0.092 -6.628,2.566 -6.628,7.418 0,0.211 0,0.457 0,0.725 0,0 22.443,0 22.528,0 6.906,0 11.662,-5.252 11.662,-11.103 0.001,-5.112 -3.064,-10.413 -10.095,-11.497 z"
           id="path3888" />
      </g>
      <g
         id="g3890">
        <path
           style="fill:#ffffff"
           inkscape:connector-curvature="0"
           d="m 367.43,655.551 c 0,0 -0.057,3.101 -0.057,3.444 -1.521,-0.509 -12.612,-4.091 -23.016,-4.456 -8.809,-0.307 -20.844,-0.729 -37.85,9.729 l -0.503,0.312 c -8.006,4.993 -13.528,11.145 -16.413,18.299 -0.913,2.25 -2.124,7.328 -0.922,12.104 0.522,2.091 1.497,4.182 2.806,6.066 2.95,4.24 7.906,7.059 13.244,7.537 7.538,0.668 13.247,-2.713 15.282,-9.049 1.394,-4.379 0,-10.792 -5.351,-14.07 -4.353,-2.664 -9.041,-2.059 -11.753,-0.266 -2.353,1.567 -3.688,3.986 -3.666,6.658 0.05,4.723 4.126,7.236 7.051,7.245 0.854,0 1.714,-0.147 2.674,-0.46 0.344,-0.109 0.662,-0.232 1.021,-0.459 l 0.112,-0.068 0.072,-0.043 -0.028,0.015 c 0.666,-0.453 1.072,-1.188 1.072,-1.981 0,-0.219 -0.031,-0.438 -0.094,-0.659 -0.347,-1.198 -1.528,-1.922 -2.757,-1.69 l -0.162,0.027 -0.225,0.07 -0.328,0.111 c -0.669,0.17 -1.179,0.182 -1.288,0.182 -0.34,-0.021 -2.037,-0.525 -2.037,-2.373 v -0.021 c 0.016,-0.674 0.281,-1.152 0.434,-1.414 0.522,-0.822 1.962,-1.629 3.897,-1.454 2.547,0.218 4.378,1.519 5.597,3.978 1.125,2.295 0.841,5.109 -0.759,7.172 -1.585,2.047 -4.4,2.92 -8.147,2.512 -3.781,-0.414 -6.978,-2.588 -8.769,-5.977 -1.747,-3.305 -1.847,-7.231 -0.244,-10.25 3.827,-7.219 11.053,-7.146 15.009,-6.461 5.635,0.973 14.169,6.023 17.375,17.701 h 7.787 c -0.965,-2.973 -1.516,-11.6 7.25,-11.6 9.619,0 10.828,6.771 13.557,11.6 h 8.25 c -2.166,-3.104 -3.693,-6.562 -3.209,-9.471 0.712,-4.295 4.126,-3.907 8.853,-3.373 1.546,0.182 3.31,0.379 5.119,0.42 5.088,0.03 9.684,-0.9 13.059,-2.376 2.182,-0.953 3.569,-1.581 4.444,-2.375 0.315,-0.257 0.478,-0.685 0.647,-1.132 l 0.118,-0.303 c 0.141,-0.365 0.321,-1.145 0.433,-1.565 0.224,-0.864 -0.542,-0.405 -0.542,-0.405 -1.472,0.89 -5.179,2.577 -8.644,2.646 -4.287,0.09 -12.938,-4.316 -13.838,-4.783 l -0.087,-0.104 c -0.223,-0.516 -1.516,-3.589 -1.791,-4.237 6.225,4.104 11.388,6.37 15.341,6.72 4.402,0.395 7.834,-2.012 9.297,-3.031 0.162,-0.107 0.744,-0.5 0.604,-0.969 -0.572,-2 -2.545,-8.699 -4.191,-10.398 -0.479,-0.494 -0.862,-0.973 -1.641,-1.424 -6.293,-3.668 -21.227,-5.887 -21.928,-5.986 0.004,-0.002 -0.168,-0.046 -0.165,0.135 z m 10.253,12.347 c 0.065,-1.703 0.781,-3.285 2.035,-4.447 1.24,-1.168 2.868,-1.77 4.568,-1.714 3.531,0.126 6.291,3.095 6.175,6.617 -0.065,1.703 -0.784,3.281 -2.024,4.445 -1.244,1.164 -2.879,1.771 -4.585,1.711 -3.525,-0.127 -6.279,-3.09 -6.169,-6.612 z"
           id="path3892" />
        <path
           style="fill:#ffffff"
           inkscape:connector-curvature="0"
           d="m 384.235,663.621 c -1.189,-0.051 -2.314,0.377 -3.184,1.189 -0.872,0.81 -1.379,1.91 -1.416,3.104 -0.078,2.456 1.844,4.527 4.301,4.613 1.193,0.038 2.324,-0.385 3.196,-1.189 0.872,-0.82 1.372,-1.921 1.415,-3.105 0.077,-2.463 -1.852,-4.528 -4.312,-4.612 z m 0.733,4.874 c -1.088,0 -1.973,-0.597 -1.973,-1.32 0,-0.729 0.885,-1.32 1.973,-1.32 1.094,0 1.98,0.591 1.98,1.32 0,0.723 -0.886,1.32 -1.98,1.32 z"
           id="path3894" />
      </g>
    </g>
  </g>
</svg>
